REM DIRINDEX 1\2,1\3,1\4,1\5,1\6
REM DIRNAME cjc030,folder01,folder02,folder03,folder04,folder05
TITLE ""
FILE "Disc3Track24.mp3" MP3
  TRACK 01 AUDIO
    TITLE "3:cjc030_04740"
    INDEX 01 00:00:00
  TRACK 02 AUDIO
    TITLE "0:"
    INDEX 01 00:01:11
  TRACK 03 AUDIO
    TITLE "4:cjc030_04741"
    INDEX 01 00:01:17
  TRACK 04 AUDIO
    TITLE "0:"
    INDEX 01 00:03:61
  TRACK 05 AUDIO
    TITLE "5:cjc030_04742"
    INDEX 01 00:03:70
  TRACK 06 AUDIO
    TITLE "0:"
    INDEX 01 00:05:10
  TRACK 07 AUDIO
    TITLE "6:cjc030_04743"
    INDEX 01 00:05:24
  TRACK 08 AUDIO
    TITLE "0:"
    INDEX 01 00:09:12
  TRACK 09 AUDIO
    TITLE "3:cjc030_04744"
    INDEX 01 00:09:61
  TRACK 10 AUDIO
    TITLE "0:"
    INDEX 01 00:11:11
  TRACK 11 AUDIO
    TITLE "4:cjc030_04745"
    INDEX 01 00:11:21
  TRACK 12 AUDIO
    TITLE "0:"
    INDEX 01 00:13:47
  TRACK 13 AUDIO
    TITLE "5:cjc030_04746"
    INDEX 01 00:13:57
  TRACK 14 AUDIO
    TITLE "0:"
    INDEX 01 00:15:07
  TRACK 15 AUDIO
    TITLE "6:cjc030_04747"
    INDEX 01 00:15:21
  TRACK 16 AUDIO
    TITLE "0:"
    INDEX 01 00:19:18
  TRACK 17 AUDIO
    TITLE "3:cjc030_04748"
    INDEX 01 00:19:67
  TRACK 18 AUDIO
    TITLE "0:"
    INDEX 01 00:21:23
  TRACK 19 AUDIO
    TITLE "4:cjc030_04749"
    INDEX 01 00:21:33
  TRACK 20 AUDIO
    TITLE "0:"
    INDEX 01 00:22:25
  TRACK 21 AUDIO
    TITLE "5:cjc030_04750"
    INDEX 01 00:22:34
  TRACK 22 AUDIO
    TITLE "0:"
    INDEX 01 00:23:63
  TRACK 23 AUDIO
    TITLE "3:cjc030_04751"
    INDEX 01 00:24:47
  TRACK 24 AUDIO
    TITLE "0:"
    INDEX 01 00:26:03
  TRACK 25 AUDIO
    TITLE "4:cjc030_04752"
    INDEX 01 00:26:13
  TRACK 26 AUDIO
    TITLE "0:"
    INDEX 01 00:27:38
  TRACK 27 AUDIO
    TITLE "5:cjc030_04753"
    INDEX 01 00:27:45
  TRACK 28 AUDIO
    TITLE "0:"
    INDEX 01 00:29:03
  TRACK 29 AUDIO
    TITLE "6:cjc030_04754"
    INDEX 01 00:29:15
  TRACK 30 AUDIO
    TITLE "0:"
    INDEX 01 00:34:69
  TRACK 31 AUDIO
    TITLE "3:cjc030_04755"
    INDEX 01 00:35:45
  TRACK 32 AUDIO
    TITLE "0:"
    INDEX 01 00:37:08
  TRACK 33 AUDIO
    TITLE "4:cjc030_04756"
    INDEX 01 00:37:16
  TRACK 34 AUDIO
    TITLE "0:"
    INDEX 01 00:38:16
  TRACK 35 AUDIO
    TITLE "5:cjc030_04757"
    INDEX 01 00:38:24
  TRACK 36 AUDIO
    TITLE "0:"
    INDEX 01 00:39:60
  TRACK 37 AUDIO
    TITLE "3:cjc030_04758"
    INDEX 01 00:40:42
  TRACK 38 AUDIO
    TITLE "0:"
    INDEX 01 00:41:61
  TRACK 39 AUDIO
    TITLE "4:cjc030_04759"
    INDEX 01 00:41:69
  TRACK 40 AUDIO
    TITLE "0:"
    INDEX 01 00:43:48
  TRACK 41 AUDIO
    TITLE "5:cjc030_04760"
    INDEX 01 00:43:54
  TRACK 42 AUDIO
    TITLE "0:"
    INDEX 01 00:45:04
  TRACK 43 AUDIO
    TITLE "6:cjc030_04761"
    INDEX 01 00:45:14
  TRACK 44 AUDIO
    TITLE "0:"
    INDEX 01 00:47:64
  TRACK 45 AUDIO
    TITLE "3:cjc030_04762"
    INDEX 01 00:48:36
  TRACK 46 AUDIO
    TITLE "0:"
    INDEX 01 00:49:65
  TRACK 47 AUDIO
    TITLE "4:cjc030_04763"
    INDEX 01 00:49:72
  TRACK 48 AUDIO
    TITLE "0:"
    INDEX 01 00:51:18
  TRACK 49 AUDIO
    TITLE "5:cjc030_04764"
    INDEX 01 00:51:24
  TRACK 50 AUDIO
    TITLE "0:"
    INDEX 01 00:52:55
  TRACK 51 AUDIO
    TITLE "6:cjc030_04765"
    INDEX 01 00:52:67
  TRACK 52 AUDIO
    TITLE "0:"
    INDEX 01 00:54:66
  TRACK 53 AUDIO
    TITLE "3:cjc030_04766"
    INDEX 01 00:55:36
  TRACK 54 AUDIO
    TITLE "0:"
    INDEX 01 00:56:67
  TRACK 55 AUDIO
    TITLE "4:cjc030_04767"
    INDEX 01 00:56:72
  TRACK 56 AUDIO
    TITLE "0:"
    INDEX 01 00:57:64
  TRACK 57 AUDIO
    TITLE "5:cjc030_04768"
    INDEX 01 00:57:72
  TRACK 58 AUDIO
    TITLE "0:"
    INDEX 01 00:59:30
  TRACK 59 AUDIO
    TITLE "3:cjc030_04769"
    INDEX 01 01:00:12
  TRACK 60 AUDIO
    TITLE "0:"
    INDEX 01 01:01:33
  TRACK 61 AUDIO
    TITLE "4:cjc030_04770"
    INDEX 01 01:01:42
  TRACK 62 AUDIO
    TITLE "0:"
    INDEX 01 01:03:65
  TRACK 63 AUDIO
    TITLE "5:cjc030_04771"
    INDEX 01 01:03:73
  TRACK 64 AUDIO
    TITLE "0:"
    INDEX 01 01:05:22
  TRACK 65 AUDIO
    TITLE "6:cjc030_04772"
    INDEX 01 01:05:34
  TRACK 66 AUDIO
    TITLE "0:"
    INDEX 01 01:07:15
  TRACK 67 AUDIO
    TITLE "3:cjc030_04773"
    INDEX 01 01:07:64
  TRACK 68 AUDIO
    TITLE "0:"
    INDEX 01 01:09:01
  TRACK 69 AUDIO
    TITLE "4:cjc030_04774"
    INDEX 01 01:09:07
  TRACK 70 AUDIO
    TITLE "0:"
    INDEX 01 01:11:27
  TRACK 71 AUDIO
    TITLE "5:cjc030_04775"
    INDEX 01 01:11:37
  TRACK 72 AUDIO
    TITLE "0:"
    INDEX 01 01:12:46
  TRACK 73 AUDIO
    TITLE "6:cjc030_04776"
    INDEX 01 01:12:58
  TRACK 74 AUDIO
    TITLE "0:"
    INDEX 01 01:15:13
  TRACK 75 AUDIO
    TITLE "3:cjc030_04777"
    INDEX 01 01:15:60
  TRACK 76 AUDIO
    TITLE "0:"
    INDEX 01 01:17:20
  TRACK 77 AUDIO
    TITLE "4:cjc030_04778"
    INDEX 01 01:17:28
  TRACK 78 AUDIO
    TITLE "0:"
    INDEX 01 01:18:54
  TRACK 79 AUDIO
    TITLE "5:cjc030_04779"
    INDEX 01 01:18:60
  TRACK 80 AUDIO
    TITLE "0:"
    INDEX 01 01:20:18
